<svg width="262" height="262" viewBox="0 0 262 262" fill="none" xmlns="http://www.w3.org/2000/svg">
<path d="M17.9585 195.757H6.59779L4.64578 201.301H0L9.721 174.129H14.8743L24.5953 201.301H19.9105L17.9585 195.757ZM16.7092 192.126L12.2976 179.516L7.84707 192.126H16.7092Z" fill="white"/>
<path d="M48.303 179.789V201.301H43.8525V198.763C43.1497 199.648 42.2258 200.351 41.0806 200.871C39.9615 201.366 38.7642 201.613 37.4889 201.613C35.7972 201.613 34.2746 201.262 32.9212 200.559C31.5939 199.856 30.5398 198.815 29.759 197.436C29.0042 196.056 28.6268 194.39 28.6268 192.438V179.789H33.0383V191.775C33.0383 193.701 33.5198 195.184 34.4828 196.225C35.4458 197.24 36.7602 197.748 38.4259 197.748C40.0916 197.748 41.4059 197.24 42.3689 196.225C43.358 195.184 43.8525 193.701 43.8525 191.775V179.789H48.303Z" fill="white"/>
<path d="M58.6258 182.913C59.2765 181.82 60.1354 180.974 61.2025 180.375C62.2956 179.75 63.5839 179.438 65.0674 179.438V184.045H63.9353C62.1915 184.045 60.8641 184.487 59.9532 185.372C59.0683 186.257 58.6258 187.793 58.6258 189.979V201.301H54.1752V179.789H58.6258V182.913Z" fill="white"/>
<path d="M78.489 201.652C76.4589 201.652 74.624 201.196 72.9844 200.286C71.3447 199.349 70.0563 198.047 69.1194 196.382C68.1824 194.69 67.7139 192.738 67.7139 190.525C67.7139 188.339 68.1954 186.4 69.1584 184.708C70.1214 183.017 71.4358 181.715 73.1015 180.804C74.7672 179.894 76.6281 179.438 78.6842 179.438C80.7403 179.438 82.6012 179.894 84.267 180.804C85.9327 181.715 87.247 183.017 88.21 184.708C89.173 186.4 89.6545 188.339 89.6545 190.525C89.6545 192.712 89.16 194.651 88.171 196.342C87.182 198.034 85.8286 199.349 84.1108 200.286C82.4191 201.196 80.5451 201.652 78.489 201.652ZM78.489 197.787C79.6342 197.787 80.7013 197.514 81.6903 196.967C82.7053 196.421 83.5252 195.601 84.1498 194.508C84.7745 193.414 85.0868 192.087 85.0868 190.525C85.0868 188.964 84.7875 187.65 84.1889 186.582C83.5903 185.489 82.7964 184.669 81.8074 184.123C80.8184 183.576 79.7513 183.303 78.6061 183.303C77.461 183.303 76.3939 183.576 75.4048 184.123C74.4418 184.669 73.6741 185.489 73.1015 186.582C72.5289 187.65 72.2426 188.964 72.2426 190.525C72.2426 192.842 72.8282 194.638 73.9994 195.913C75.1966 197.162 76.6932 197.787 78.489 197.787Z" fill="white"/>
<path d="M98.5047 182.913C99.1554 181.82 100.014 180.974 101.081 180.375C102.174 179.75 103.463 179.438 104.946 179.438V184.045H103.814C102.07 184.045 100.743 184.487 99.8321 185.372C98.9472 186.257 98.5047 187.793 98.5047 189.979V201.301H94.0541V179.789H98.5047V182.913Z" fill="white"/>
<path d="M107.554 190.447C107.554 188.287 107.996 186.374 108.881 184.708C109.792 183.043 111.015 181.754 112.551 180.844C114.113 179.907 115.83 179.438 117.704 179.438C119.396 179.438 120.866 179.776 122.116 180.453C123.391 181.104 124.406 181.924 125.161 182.913V179.789H129.651V201.301H125.161V198.099C124.406 199.114 123.378 199.96 122.077 200.637C120.775 201.314 119.292 201.652 117.626 201.652C115.778 201.652 114.087 201.183 112.551 200.246C111.015 199.283 109.792 197.956 108.881 196.264C107.996 194.547 107.554 192.608 107.554 190.447ZM125.161 190.525C125.161 189.042 124.849 187.754 124.224 186.661C123.625 185.567 122.832 184.735 121.842 184.162C120.853 183.589 119.786 183.303 118.641 183.303C117.496 183.303 116.429 183.589 115.44 184.162C114.451 184.708 113.644 185.528 113.019 186.621C112.421 187.689 112.121 188.964 112.121 190.447C112.121 191.931 112.421 193.232 113.019 194.351C113.644 195.471 114.451 196.329 115.44 196.928C116.455 197.501 117.522 197.787 118.641 197.787C119.786 197.787 120.853 197.501 121.842 196.928C122.832 196.355 123.625 195.523 124.224 194.429C124.849 193.31 125.161 192.009 125.161 190.525Z" fill="white"/>
<path d="M164.611 182.249C164.611 183.628 164.286 184.93 163.635 186.153C162.984 187.376 161.943 188.378 160.512 189.159C159.08 189.914 157.245 190.291 155.007 190.291H150.088V201.301H145.637V174.168H155.007C157.089 174.168 158.846 174.532 160.278 175.261C161.735 175.963 162.815 176.926 163.518 178.15C164.247 179.373 164.611 180.739 164.611 182.249ZM155.007 186.661C156.699 186.661 157.961 186.283 158.794 185.528C159.627 184.748 160.043 183.654 160.043 182.249C160.043 179.282 158.365 177.798 155.007 177.798H150.088V186.661H155.007Z" fill="white"/>
<path d="M173.306 182.913C173.957 181.82 174.816 180.974 175.883 180.375C176.976 179.75 178.264 179.438 179.748 179.438V184.045H178.616C176.872 184.045 175.545 184.487 174.634 185.372C173.749 186.257 173.306 187.793 173.306 189.979V201.301H168.856V179.789H173.306V182.913Z" fill="white"/>
<path d="M193.169 201.652C191.139 201.652 189.304 201.196 187.665 200.286C186.025 199.349 184.737 198.047 183.8 196.382C182.863 194.69 182.394 192.738 182.394 190.525C182.394 188.339 182.876 186.4 183.839 184.708C184.802 183.017 186.116 181.715 187.782 180.804C189.448 179.894 191.309 179.438 193.365 179.438C195.421 179.438 197.282 179.894 198.947 180.804C200.613 181.715 201.927 183.017 202.89 184.708C203.853 186.4 204.335 188.339 204.335 190.525C204.335 192.712 203.84 194.651 202.851 196.342C201.862 198.034 200.509 199.349 198.791 200.286C197.1 201.196 195.226 201.652 193.169 201.652ZM193.169 197.787C194.315 197.787 195.382 197.514 196.371 196.967C197.386 196.421 198.206 195.601 198.83 194.508C199.455 193.414 199.767 192.087 199.767 190.525C199.767 188.964 199.468 187.65 198.869 186.582C198.271 185.489 197.477 184.669 196.488 184.123C195.499 183.576 194.432 183.303 193.287 183.303C192.141 183.303 191.074 183.576 190.085 184.123C189.122 184.669 188.355 185.489 187.782 186.582C187.209 187.65 186.923 188.964 186.923 190.525C186.923 192.842 187.509 194.638 188.68 195.913C189.877 197.162 191.374 197.787 193.169 197.787Z" fill="white"/>
<path d="M217.753 183.42H213.771V201.301H209.281V183.42H206.744V179.789H209.281V178.267C209.281 175.794 209.932 173.998 211.233 172.879C212.561 171.734 214.63 171.162 217.441 171.162V174.87C216.087 174.87 215.137 175.131 214.591 175.651C214.044 176.146 213.771 177.018 213.771 178.267V179.789H217.753V183.42Z" fill="white"/>
<path d="M223.961 176.94C223.155 176.94 222.478 176.666 221.931 176.12C221.385 175.573 221.112 174.896 221.112 174.09C221.112 173.283 221.385 172.606 221.931 172.059C222.478 171.513 223.155 171.24 223.961 171.24C224.742 171.24 225.406 171.513 225.953 172.059C226.499 172.606 226.772 173.283 226.772 174.09C226.772 174.896 226.499 175.573 225.953 176.12C225.406 176.666 224.742 176.94 223.961 176.94ZM226.148 179.789V201.301H221.697V179.789H226.148Z" fill="white"/>
<path d="M236.442 172.411V201.301H231.991V172.411H236.442Z" fill="white"/>
<path d="M262 190.018C262 190.825 261.948 191.554 261.844 192.204H245.408C245.538 193.922 246.176 195.301 247.321 196.342C248.466 197.384 249.872 197.904 251.537 197.904C253.932 197.904 255.623 196.902 256.612 194.898H261.414C260.764 196.876 259.579 198.503 257.862 199.778C256.17 201.027 254.062 201.652 251.537 201.652C249.481 201.652 247.633 201.196 245.994 200.286C244.38 199.349 243.105 198.047 242.168 196.382C241.257 194.69 240.801 192.738 240.801 190.525C240.801 188.313 241.244 186.374 242.129 184.708C243.04 183.017 244.302 181.715 245.915 180.804C247.555 179.894 249.429 179.438 251.537 179.438C253.567 179.438 255.376 179.881 256.964 180.765C258.551 181.65 259.788 182.9 260.673 184.513C261.558 186.101 262 187.936 262 190.018ZM257.354 188.613C257.328 186.973 256.743 185.658 255.597 184.669C254.452 183.68 253.034 183.186 251.342 183.186C249.806 183.186 248.492 183.68 247.399 184.669C246.306 185.632 245.655 186.947 245.447 188.613H257.354Z" fill="white"/>
<path d="M167.212 170.121L224.58 128.44H153.669L131.756 61L109.844 128.44H38.9328L96.3009 170.121" stroke="white" stroke-width="9" stroke-linecap="round"/>
</svg>
